<svg xmlns="http://www.w3.org/2000/svg" viewBox="0 0 842.81 125.45"><defs><style>.cls-1{fill:#5abf73;}</style></defs><g id="Layer_2" data-name="Layer 2"><g id="Layer_1-2" data-name="Layer 1"><path class="cls-1" d="M282.73,22H271.92L235.45,76.43v27H255.9v22H190.28v-22h19.3V76.24L172,22h-11.2V0h51.92V22H202.25l21,31.65h1.15L245.29,22h-12V0h49.41Z"/><path class="cls-1" d="M406.06,42.46l-22,1.93L380.19,22H360.32v81.45h20.45v22H315.15v-22h19.3V22H314.57l-3.86,22.39-22-1.93L292.57,0H402.2Z"/><path class="cls-1" d="M514.71,125.45H417.83v-22h13.51V22H417.83V0h95.72l3.86,36.67-22,1.93L491.55,22H457.2V51.53h52.88V73.34H457.2v30.11h35.51l3.86-16.6,22,1.93Z"/><path class="cls-1" d="M728.55,22H713.11v81.45h13.51v22H676.25v-22h11V55.58h-.77l-33,59.64H642.67L607.16,53.27h-.78v50.18h12v22h-49.6v-22h13.51V22H566.82V0h37l44.59,77.78h.77L691.11,0h37.44Z"/><path class="cls-1" d="M839,125.45H742.06v-22h13.51V22H742.06V0h95.73l3.86,36.67-22,1.93L815.79,22H781.43V51.53h52.89V73.34H781.43v30.11H817l3.86-16.6,22,1.93Z"/><path class="cls-1" d="M150.43,67q-6.85-8.69-20.36-10.61v-.78q10.8-1.72,16.79-9.07a26.38,26.38,0,0,0,6-17.17A25.48,25.48,0,0,0,142.32,8q-10.51-8-27.69-8H49.39V1.26c.34.08.69.15,1,.26A19.36,19.36,0,0,1,61.37,29.89l.51.13a19.39,19.39,0,0,1,4.54,35,19.37,19.37,0,0,1-1.83,35.4,19.36,19.36,0,0,1-15.2,24.08v1h66q21.61,0,31.75-11.1A37.51,37.51,0,0,0,157.28,88.2Q157.28,75.66,150.43,67ZM88.76,22h19.11a24.81,24.81,0,0,1,12.06,2.8q5.11,2.81,5.12,11.29a15.46,15.46,0,0,1-4,10.81q-4.06,4.44-15.06,4.44H88.76Zm19.88,81.45H88.76v-32h21.62q19.11,0,19.11,15.83Q129.49,103.44,108.64,103.45Z"/><polygon class="cls-1" points="50.5 89.41 22.78 75.35 23.76 101.42 50.5 89.41"/><polygon class="cls-1" points="22.03 52.71 0.75 69.53 0 46.89 22.03 52.71"/><polygon class="cls-1" points="36.08 25 17.44 2.11 2.57 11.66 36.08 25"/></g></g></svg>