<svg xmlns="http://www.w3.org/2000/svg" viewBox="0 0 589.06 93.14"><defs><style>.cls-1{fill:#60c47e;}</style></defs><g id="Layer_2" data-name="Layer 2"><g id="Layer_1-2" data-name="Layer 1"><path class="cls-1" d="M80.1,65.48A27.88,27.88,0,0,1,72.58,84.9Q65.05,93.14,49,93.14H0V76.8H10V16.34H0V0H48.43Q61.18,0,69,6a18.9,18.9,0,0,1,7.82,15.83,19.58,19.58,0,0,1-4.45,12.75Q67.92,40,59.9,41.27v.57q10,1.44,15.11,7.88A24.67,24.67,0,0,1,80.1,65.48ZM56.17,26.8q0-6.32-3.8-8.39a18.4,18.4,0,0,0-8.95-2.07H29.23V38.11H42q8.16,0,11.17-3.29A11.45,11.45,0,0,0,56.17,26.8Zm3.3,38Q59.47,53,45.28,53h-16V76.8H44Q59.47,76.8,59.47,64.77Z"/><path class="cls-1" d="M173.24,16.34h-8l-27.08,40.4V76.8h15.19V93.14H104.6V76.8h14.33V56.6L91,16.34H82.68V0h38.54V16.34h-7.74L129.1,39.83H130l15.48-23.49h-8.88V0h36.68Z"/><path class="cls-1" d="M264.8,31.52,248.46,33,245.6,16.34H230.84V76.8H246V93.14H197.31V76.8h14.33V16.34H196.88L194,33l-16.33-1.44L180.55,0h81.38Z"/><path class="cls-1" d="M345.47,93.14H273.54V76.8h10V16.34h-10V0h71.07l2.87,27.22-16.34,1.44-2.87-12.32h-25.5V38.26H342V54.45H302.77V76.8h26.37L332,64.48l16.34,1.43Z"/><path class="cls-1" d="M504.24,16.34H492.77V76.8h10V93.14H465.4V76.8h8.17V41.27H473L448.49,85.54h-8l-26.36-46h-.58V76.8h8.89V93.14H385.59V76.8h10V16.34H384.16V0h27.51l33.1,57.75h.57L476.44,0h27.8Z"/><path class="cls-1" d="M586.2,93.14H514.26V76.8h10V16.34h-10V0h71.08l2.86,27.22-16.33,1.44L569,16.34H543.5V38.26h39.26V54.45H543.5V76.8h26.36l2.87-12.32,16.33,1.43Z"/></g></g></svg>